<svg width="28" height="22" viewBox="0 0 28 22" fill="none" xmlns="http://www.w3.org/2000/svg">
<path d="M3.33335 21.6666C2.60002 21.6666 1.97246 21.4057 1.45069 20.8839C0.928909 20.3621 0.667576 19.7341 0.666687 18.9999V2.99992C0.666687 2.26659 0.92802 1.63903 1.45069 1.11725C1.97335 0.595474 2.60091 0.334141 3.33335 0.333252H24.6667C25.4 0.333252 26.028 0.594585 26.5507 1.11725C27.0734 1.63992 27.3342 2.26747 27.3334 2.99992V18.9999C27.3334 19.7333 27.0725 20.3613 26.5507 20.8839C26.0289 21.4066 25.4009 21.6675 24.6667 21.6666H3.33335ZM14 12.3333L3.33335 5.66659V18.9999H24.6667V5.66659L14 12.3333ZM14 9.66659L24.6667 2.99992H3.33335L14 9.66659ZM3.33335 5.66659V2.99992V18.9999V5.66659Z" fill="white"/>
</svg>
