<svg width="16" height="17" viewBox="0 0 16 17" fill="none" xmlns="http://www.w3.org/2000/svg">
<path d="M2.18333 10.5097C1.61666 9.77367 1.33333 9.405 1.33333 8.31234C1.33333 7.219 1.61666 6.85167 2.18333 6.115C3.31466 4.64567 5.21199 2.979 7.99999 2.979C10.788 2.979 12.6853 4.64567 13.8167 6.115C14.3833 6.85234 14.6667 7.21967 14.6667 8.31234C14.6667 9.40567 14.3833 9.773 13.8167 10.5097C12.6853 11.979 10.788 13.6457 7.99999 13.6457C5.21199 13.6457 3.31466 11.979 2.18333 10.5097Z" stroke="white" stroke-width="1.5"/>
<path d="M10 8.31238C10 8.84281 9.78929 9.35152 9.41421 9.72659C9.03914 10.1017 8.53043 10.3124 8 10.3124C7.46957 10.3124 6.96086 10.1017 6.58579 9.72659C6.21071 9.35152 6 8.84281 6 8.31238C6 7.78194 6.21071 7.27324 6.58579 6.89816C6.96086 6.52309 7.46957 6.31238 8 6.31238C8.53043 6.31238 9.03914 6.52309 9.41421 6.89816C9.78929 7.27324 10 7.78194 10 8.31238Z" stroke="white" stroke-width="1.5"/>
</svg>
