<svg width="20" height="15" viewBox="0 0 20 15" fill="none" xmlns="http://www.w3.org/2000/svg">
<path d="M2.72919 10.2466C2.02085 9.32665 1.66669 8.86581 1.66669 7.49998C1.66669 6.13331 2.02085 5.67415 2.72919 4.75331C4.14335 2.91665 6.51502 0.833313 10 0.833313C13.485 0.833313 15.8567 2.91665 17.2709 4.75331C17.9792 5.67498 18.3334 6.13415 18.3334 7.49998C18.3334 8.86665 17.9792 9.32581 17.2709 10.2466C15.8567 12.0833 13.485 14.1666 10 14.1666C6.51502 14.1666 4.14335 12.0833 2.72919 10.2466Z" stroke="#9D9D9D" stroke-width="1.5"/>
<path d="M12.5 7.5C12.5 8.16304 12.2366 8.79893 11.7678 9.26777C11.2989 9.73661 10.663 10 10 10C9.33696 10 8.70107 9.73661 8.23223 9.26777C7.76339 8.79893 7.5 8.16304 7.5 7.5C7.5 6.83696 7.76339 6.20107 8.23223 5.73223C8.70107 5.26339 9.33696 5 10 5C10.663 5 11.2989 5.26339 11.7678 5.73223C12.2366 6.20107 12.5 6.83696 12.5 7.5Z" stroke="#9D9D9D" stroke-width="1.5"/>
</svg>
