<svg width="22" height="22" viewBox="0 0 22 22" fill="none" xmlns="http://www.w3.org/2000/svg">
<path fill-rule="evenodd" clip-rule="evenodd" d="M20.1667 7.60196C20.1667 10.7883 17.5726 13.3715 14.3734 13.3715C13.7904 13.3715 12.4612 13.2376 11.815 12.7005L11.0065 13.5053C10.5307 13.9792 10.6591 14.1185 10.8708 14.3477C10.9588 14.444 11.0615 14.5549 11.1412 14.7135C11.1412 14.7135 11.815 15.6521 11.1412 16.5917C10.737 17.128 9.60492 17.8787 8.31242 16.5917L8.04292 16.8594C8.04292 16.8594 8.8505 17.799 8.17767 18.7385C7.77342 19.2748 6.69542 19.811 5.75217 18.8724L4.80983 19.811C4.16267 20.4555 3.3725 20.0796 3.059 19.811L2.24958 19.0062C1.49517 18.2545 1.93517 17.4405 2.24958 17.127L9.25475 10.1512C9.25475 10.1512 8.581 9.07871 8.581 7.60287C8.581 4.41654 11.1752 1.83337 14.3743 1.83337C17.5735 1.83337 20.1667 4.41654 20.1667 7.60196ZM14.3743 9.61496C14.909 9.61593 15.4222 9.40452 15.8011 9.02721C16.1799 8.64989 16.3935 8.13757 16.3947 7.60287C16.3942 7.33804 16.3415 7.0759 16.2398 6.83141C16.138 6.58692 15.989 6.36487 15.8014 6.17795C15.6138 5.99102 15.3912 5.84288 15.1464 5.74198C14.9015 5.64108 14.6392 5.58939 14.3743 5.58987C14.1095 5.58939 13.8472 5.64108 13.6023 5.74198C13.3575 5.84288 13.1349 5.99102 12.9473 6.17795C12.7597 6.36487 12.6107 6.58692 12.5089 6.83141C12.4071 7.0759 12.3545 7.33804 12.354 7.60287C12.3552 8.13757 12.5687 8.64989 12.9476 9.02721C13.3264 9.40452 13.8396 9.61593 14.3743 9.61496Z" fill="white"/>
</svg>
