<svg width="36" height="36" viewBox="0 0 36 36" fill="none" xmlns="http://www.w3.org/2000/svg">
<circle cx="18" cy="18" r="17.5" stroke="#9875F6"/>
<path d="M26.0798 12.1892C26.4462 12.318 26.7636 12.5573 26.9881 12.8742C27.2127 13.1912 27.3332 13.57 27.3332 13.9584V22.2917C27.3332 23.231 26.96 24.1318 26.2958 24.796C25.6316 25.4602 24.7308 25.8334 23.7915 25.8334H15.4582C15.0698 25.8334 14.691 25.7128 14.3741 25.4883C14.0571 25.2638 13.8178 24.9464 13.689 24.58L15.4365 24.5834H23.7915C24.3993 24.5834 24.9822 24.3419 25.412 23.9121C25.8417 23.4824 26.0832 22.8995 26.0832 22.2917V13.9584L26.0798 13.9159V12.1892ZM23.3715 9.16669C23.8688 9.16669 24.3457 9.36423 24.6973 9.71586C25.049 10.0675 25.2465 10.5444 25.2465 11.0417V21.8725C25.2465 22.3698 25.049 22.8467 24.6973 23.1983C24.3457 23.55 23.8688 23.7475 23.3715 23.7475H12.5415C12.0442 23.7475 11.5673 23.55 11.2157 23.1983C10.864 22.8467 10.6665 22.3698 10.6665 21.8725V11.0417C10.6665 10.5444 10.864 10.0675 11.2157 9.71586C11.5673 9.36423 12.0442 9.16669 12.5415 9.16669H23.3715ZM23.3715 10.4167H12.5415C12.3757 10.4167 12.2168 10.4825 12.0996 10.5997C11.9824 10.717 11.9165 10.8759 11.9165 11.0417V21.8725C11.9165 22.2175 12.1965 22.4975 12.5415 22.4975H23.3723C23.5381 22.4975 23.6971 22.4317 23.8143 22.3145C23.9315 22.1973 23.9973 22.0383 23.9973 21.8725V11.0417C23.9973 10.8759 23.9315 10.717 23.8143 10.5997C23.6971 10.4825 23.5373 10.4167 23.3715 10.4167ZM17.9582 13.125C18.1239 13.125 18.2829 13.1909 18.4001 13.3081C18.5173 13.4253 18.5832 13.5843 18.5832 13.75V15.8334H20.6665C20.8323 15.8334 20.9912 15.8992 21.1084 16.0164C21.2257 16.1336 21.2915 16.2926 21.2915 16.4584C21.2915 16.6241 21.2257 16.7831 21.1084 16.9003C20.9912 17.0175 20.8323 17.0834 20.6665 17.0834H18.5832V19.1667C18.5832 19.3324 18.5173 19.4914 18.4001 19.6086C18.2829 19.7258 18.1239 19.7917 17.9582 19.7917C17.7924 19.7917 17.6334 19.7258 17.5162 19.6086C17.399 19.4914 17.3332 19.3324 17.3332 19.1667V17.0834H15.2498C15.0841 17.0834 14.9251 17.0175 14.8079 16.9003C14.6907 16.7831 14.6248 16.6241 14.6248 16.4584C14.6248 16.2926 14.6907 16.1336 14.8079 16.0164C14.9251 15.8992 15.0841 15.8334 15.2498 15.8334H17.3332V13.75C17.3332 13.5843 17.399 13.4253 17.5162 13.3081C17.6334 13.1909 17.7924 13.125 17.9582 13.125Z" fill="#9875F6"/>
</svg>
