<svg width="24" height="24" viewBox="0 0 24 24" fill="none" xmlns="http://www.w3.org/2000/svg">
<path d="M6 6.2C6 5.08 6 4.52 6.218 4.092C6.40974 3.71569 6.71569 3.40974 7.092 3.218C7.52 3 8.08 3 9.2 3H14.8C15.92 3 16.48 3 16.908 3.218C17.2843 3.40974 17.5903 3.71569 17.782 4.092C18 4.52 18 5.08 18 6.2V19.505C18 19.991 18 20.234 17.899 20.367C17.8554 20.4248 17.7997 20.4725 17.7358 20.5067C17.6719 20.5409 17.6013 20.5608 17.529 20.565C17.362 20.575 17.16 20.44 16.756 20.171L12 17L7.244 20.17C6.84 20.44 6.638 20.575 6.47 20.565C6.39784 20.5606 6.32748 20.5407 6.26377 20.5065C6.20007 20.4723 6.14453 20.4247 6.101 20.367C6 20.234 6 19.991 6 19.505V6.2Z" stroke="white" stroke-width="1.5" stroke-linecap="round" stroke-linejoin="round"/>
</svg>
