<svg width="16" height="21" viewBox="0 0 16 21" fill="none" xmlns="http://www.w3.org/2000/svg">
<g clip-path="url(#clip0_127_4587)">
<path d="M14.9666 7.54782L14.4332 9.44788C14.2589 10.0735 13.4203 10.5635 12.5243 10.5635H10.7182V19.3188C10.7182 20.0088 9.98516 20.5688 9.01764 20.5688H6.38613C5.4186 20.5688 4.6315 20.0076 4.6315 19.3182V10.5635H3.75463C2.7871 10.5635 2 10.0029 2 9.31287V7.43719C2 6.74779 2.7871 6.18652 3.75463 6.18652H4.6315V4.32021C4.6315 2.26578 6.96403 0.593848 9.84134 0.576348C9.85965 0.575723 9.87534 0.568848 9.89451 0.568848H13.4038C13.8875 0.568848 14.2048 0.848231 14.2048 1.19324V4.31834C14.2048 4.66398 13.8875 4.94586 13.4038 4.94586H10.7714L10.7705 6.18652H13.402C13.8954 6.18652 14.3504 6.3359 14.6485 6.59591C14.9475 6.85529 15.0634 7.20281 14.9666 7.54782ZM9.92676 7.43719C9.91456 7.43781 9.90497 7.44219 9.89277 7.44219C9.40813 7.44156 9.01502 7.16155 9.01589 6.81654V6.81217L9.01764 4.32021C9.01764 3.97458 9.40988 3.6952 9.89451 3.6952H12.526V1.81951H9.92851C9.91369 1.81951 9.90149 1.82514 9.8858 1.82514C7.95597 1.82514 6.38613 2.94455 6.38613 4.32021V6.82154C6.38613 7.16718 5.99302 7.44719 5.50838 7.44719C5.48485 7.44719 5.4648 7.43844 5.44127 7.43719H3.75463V9.31287H5.50838C5.99302 9.31287 6.38613 9.59288 6.38613 9.93852C6.38613 9.97102 6.36695 9.99852 6.35998 10.0298V19.3188L9.01764 19.3182V9.94477C9.01764 9.94227 9.01589 9.94039 9.01589 9.93852C9.01589 9.59288 9.40813 9.31287 9.89277 9.31287H12.5243C12.5879 9.31287 12.7012 9.24724 12.7126 9.20349L13.2085 7.43719H9.92676Z" fill="#D3C8FB"/>
</g>
<defs>
<clipPath id="clip0_127_4587">
<rect width="16" height="20" fill="white" transform="translate(0 0.568848)"/>
</clipPath>
</defs>
</svg>
