<svg width="20" height="21" viewBox="0 0 20 21" fill="none" xmlns="http://www.w3.org/2000/svg">
<path d="M2.5 9.73551C2.5 6.59281 2.5 5.02147 3.47631 4.04516C4.45262 3.06885 6.02397 3.06885 9.16667 3.06885H10.8333C13.976 3.06885 15.5474 3.06885 16.5237 4.04516C17.5 5.02147 17.5 6.59281 17.5 9.73551V11.4022C17.5 14.5448 17.5 16.1163 16.5237 17.0925C15.5474 18.0688 13.976 18.0688 10.8333 18.0688H9.16667C6.02397 18.0688 4.45262 18.0688 3.47631 17.0925C2.5 16.1163 2.5 14.5448 2.5 11.4022V9.73551Z" stroke="#D3C8FB" stroke-width="1.5"/>
<path d="M13.75 8.06885C14.4404 8.06885 15 7.5092 15 6.81885C15 6.12849 14.4404 5.56885 13.75 5.56885C13.0596 5.56885 12.5 6.12849 12.5 6.81885C12.5 7.5092 13.0596 8.06885 13.75 8.06885Z" fill="#D3C8FB"/>
<path d="M9.99998 13.4854C11.6108 13.4854 12.9166 12.1796 12.9166 10.5688C12.9166 8.95794 11.6108 7.6521 9.99998 7.6521C8.38915 7.6521 7.08331 8.95794 7.08331 10.5688C7.08331 12.1796 8.38915 13.4854 9.99998 13.4854Z" stroke="#D3C8FB" stroke-width="1.5"/>
</svg>
