<svg width="17" height="16" viewBox="0 0 17 16" fill="none" xmlns="http://www.w3.org/2000/svg">
<path d="M13.1562 7.5H2.53125C2.39035 7.5 2.25523 7.54939 2.1556 7.63729C2.05597 7.7252 2 7.84443 2 7.96875C2 8.09307 2.05597 8.2123 2.1556 8.30021C2.25523 8.38811 2.39035 8.4375 2.53125 8.4375H13.1562C13.2971 8.4375 13.4323 8.38811 13.5319 8.30021C13.6315 8.2123 13.6875 8.09307 13.6875 7.96875C13.6875 7.84443 13.6315 7.7252 13.5319 7.63729C13.4323 7.54939 13.2971 7.5 13.1562 7.5Z" fill="#9875F6"/>
<path d="M13.0613 7.99998L8.65512 11.8869C8.55537 11.9749 8.49933 12.0943 8.49933 12.2187C8.49933 12.3432 8.55537 12.4626 8.65512 12.5506C8.75488 12.6386 8.89017 12.6881 9.03125 12.6881C9.17232 12.6881 9.30762 12.6386 9.40737 12.5506L14.1886 8.33186C14.2381 8.28831 14.2773 8.23659 14.3041 8.17964C14.3309 8.12269 14.3447 8.06164 14.3447 7.99998C14.3447 7.93832 14.3309 7.87727 14.3041 7.82033C14.2773 7.76338 14.2381 7.71165 14.1886 7.66811L9.40737 3.44936C9.30762 3.36134 9.17232 3.31189 9.03125 3.31189C8.89017 3.31189 8.75488 3.36134 8.65512 3.44936C8.55537 3.53738 8.49933 3.65675 8.49933 3.78123C8.49933 3.90571 8.55537 4.02509 8.65512 4.11311L13.0613 7.99998Z" fill="#9875F6"/>
</svg>
