<svg width="17" height="16" viewBox="0 0 17 16" fill="none" xmlns="http://www.w3.org/2000/svg">
<path d="M3.71875 7.53125H14.3438C14.4846 7.53125 14.6198 7.58064 14.7194 7.66854C14.819 7.75645 14.875 7.87568 14.875 8C14.875 8.12432 14.819 8.24355 14.7194 8.33146C14.6198 8.41936 14.4846 8.46875 14.3438 8.46875H3.71875C3.57785 8.46875 3.44273 8.41936 3.3431 8.33146C3.24347 8.24355 3.1875 8.12432 3.1875 8C3.1875 7.87568 3.24347 7.75645 3.3431 7.66854C3.44273 7.58064 3.57785 7.53125 3.71875 7.53125Z" fill="#9875F6"/>
<path d="M3.93869 7.99998L8.34488 11.8869C8.44463 11.9749 8.50067 12.0943 8.50067 12.2187C8.50067 12.3432 8.44463 12.4626 8.34488 12.5506C8.24512 12.6386 8.10983 12.6881 7.96875 12.6881C7.82768 12.6881 7.69238 12.6386 7.59263 12.5506L2.81138 8.33186C2.76191 8.28831 2.72265 8.23659 2.69587 8.17964C2.66909 8.12269 2.6553 8.06164 2.6553 7.99998C2.6553 7.93832 2.66909 7.87727 2.69587 7.82033C2.72265 7.76338 2.76191 7.71165 2.81138 7.66811L7.59263 3.44936C7.69238 3.36134 7.82768 3.31189 7.96875 3.31189C8.10983 3.31189 8.24512 3.36134 8.34488 3.44936C8.44463 3.53738 8.50067 3.65675 8.50067 3.78123C8.50067 3.90571 8.44463 4.02509 8.34488 4.11311L3.93869 7.99998Z" fill="#9875F6"/>
</svg>
