<svg width="20" height="21" viewBox="0 0 20 21" fill="none" xmlns="http://www.w3.org/2000/svg">
<g clip-path="url(#clip0_127_4585)">
<path d="M13.1252 2.10731C14.1575 2.10731 15.3288 2.60885 15.9852 3.44423C16.8012 3.25039 17.5713 2.89577 18.2635 2.40423C17.9963 3.405 17.4261 4.245 16.6855 4.77577C17.4104 4.67039 18.1045 4.44192 18.7476 4.09962C18.2661 4.95885 17.6581 5.715 16.9565 6.32039C16.9628 6.50346 16.9665 6.68808 16.9665 6.87269C16.9665 12.5396 13.4823 19.0304 6.87727 19.0304C4.85036 19.0304 2.83351 18.3635 1.24606 17.1465C1.52646 17.1881 1.81251 17.2081 2.10171 17.2081C3.7841 17.2081 5.33257 16.5227 6.56292 15.3704C4.98993 15.3373 3.66339 14.0965 3.20821 12.3942C3.42637 12.4435 3.6527 12.4712 3.88406 12.4712C4.20972 12.4712 4.52847 12.4196 4.82899 12.3204C3.18621 11.9288 1.94894 10.195 1.94894 8.11731C1.94894 8.09731 1.94894 8.07962 1.94894 8.06116C2.43366 8.38269 2.98628 8.57654 3.57537 8.59962C2.61158 7.82808 1.97849 6.51808 1.97849 5.02962C1.97849 4.24346 2.15515 3.50577 2.46384 2.875C4.23424 5.46654 6.88104 7.175 9.86608 7.355C9.80384 7.04116 9.77177 6.71039 9.77177 6.37885C9.77177 4.00962 11.1411 2.10731 13.1252 2.10731ZM18.7476 4.09962H18.7508H18.7476ZM13.1252 0.568848C10.7085 0.568848 8.83942 2.68654 8.55902 5.60885C6.55412 5.11116 4.73028 3.80269 3.42008 1.885C3.18181 1.53577 2.831 1.33654 2.46384 1.33654C2.43115 1.33654 2.39846 1.33808 2.36576 1.34116C1.9634 1.38039 1.60127 1.65577 1.39317 2.08116C0.958748 2.97039 0.728646 3.98962 0.728646 5.02962C0.728646 5.72269 0.830494 6.39885 1.02162 7.03039C0.817291 7.30885 0.699726 7.675 0.699726 8.06116V8.11731C0.699726 9.62423 1.18319 11.0219 1.98666 12.0704C1.94077 12.3335 1.95083 12.6112 2.02124 12.875C2.29912 13.9135 2.80333 14.8073 3.45718 15.4888C3.01772 15.6088 2.56443 15.6696 2.10171 15.6696C1.85715 15.6696 1.62013 15.6527 1.39695 15.6188C1.34602 15.6119 1.29573 15.6081 1.24543 15.6081C0.72173 15.6081 0.245809 16.0135 0.0678887 16.635C-0.127006 17.315 0.0880069 18.0712 0.585932 18.4527C2.36639 19.8173 4.60077 20.5688 6.87727 20.5688C11.1769 20.5688 13.847 18.1404 15.3294 16.1035C17.1275 13.6335 18.1736 10.3519 18.2145 7.07269C18.7973 6.47808 19.3116 5.79192 19.7473 5.02423C19.9051 4.76731 19.9987 4.44654 19.9987 4.09962C19.9987 3.57577 19.7869 3.11346 19.4631 2.835C19.6033 2.24269 19.4423 1.60116 19.0513 1.20962C18.8231 0.981925 18.5439 0.865771 18.2629 0.865771C18.0485 0.865771 17.8329 0.933463 17.6386 1.07192C17.2205 1.36885 16.7735 1.60269 16.3026 1.77039C15.4376 1.02423 14.2638 0.568848 13.1252 0.568848Z" fill="#D3C8FB"/>
</g>
<defs>
<clipPath id="clip0_127_4585">
<rect width="20" height="20" fill="white" transform="translate(0 0.568848)"/>
</clipPath>
</defs>
</svg>
